<svg width="87" height="76" viewBox="0 0 87 76" fill="none" xmlns="http://www.w3.org/2000/svg">
<path d="M65.8818 30.246V53.7799C59.8798 57.1958 51.4044 60.9833 43.3592 60.9833C32.3328 60.9833 20.498 53.8654 15.3253 50.3503C13.6603 49.2179 12.6492 47.2095 12.6492 45.0487V30.246H65.8818Z" fill="#F66962"/>
<path d="M74.0792 29.9383V44.329C74.0792 46.4377 73.0682 48.3968 71.4034 49.5007C66.2313 52.9307 54.3969 59.8755 43.3694 59.8755C32.3421 59.8755 20.508 52.9307 15.3355 49.5007C13.6709 48.3968 12.6596 46.4377 12.6596 44.329V29.9383H74.0792ZM75.7507 28.2653H74.0792H12.6598H10.9885V29.9383V44.329C10.9885 47.0187 12.2685 49.4736 14.4126 50.8954C17.1377 52.7026 21.4454 55.3166 26.4915 57.5089C32.6614 60.1897 38.3399 61.5487 43.3694 61.5487C48.399 61.5487 54.0775 60.1897 60.2476 57.5089C65.2933 55.3166 69.601 52.7024 72.3263 50.8954C74.4701 49.4736 75.7507 47.0187 75.7507 44.329V29.9383V28.2653Z" fill="#FF4667"/>
<path d="M65.1071 57.1949C63.5425 57.3842 62.1016 58.1401 61.055 59.3197C60.009 60.5 59.4309 62.0222 59.4292 63.5996V69.2914C59.4292 71.5984 60.6585 73.7311 62.6552 74.8846C64.652 76.0386 67.1116 76.0386 69.1079 74.8846C71.1046 73.7311 72.3345 71.5984 72.3345 69.2914V63.5996C72.3328 62.0222 71.7541 60.5 70.7081 59.3197C69.6621 58.1401 68.2206 57.3842 66.656 57.1949" fill="#392C7D"/>
<path d="M70.7859 64.3591H60.9791V63.669C60.9791 60.9582 63.1747 58.7609 65.8822 58.7609C68.5903 58.7609 70.7859 60.9587 70.7859 63.669V64.3591Z" fill="white"/>
<path d="M82.3867 28.0327L45.2453 45.7327C43.9945 46.3288 42.5417 46.3273 41.2922 45.7286L3.94794 27.8366C0.485845 26.1779 0.467462 21.2508 3.91702 19.5661L41.241 1.33865C42.5192 0.71442 44.0143 0.718815 45.2889 1.35057L82.4508 19.7701C85.8829 21.4714 85.845 26.3849 82.3867 28.0327Z" fill="#392C7D"/>
<path d="M43.2521 1.64328C43.764 1.64328 44.2756 1.7579 44.7463 1.98714L82.788 20.5082C85.3067 21.7345 85.2788 25.2764 82.7412 26.4645L44.7145 44.2649C44.2568 44.4791 43.7619 44.5863 43.2672 44.5863C42.77 44.5863 42.2732 44.4783 41.8136 44.262L3.58476 26.2711C1.04397 25.0755 1.0306 21.5237 3.56199 20.3093L41.7756 1.97851C42.2417 1.75502 42.747 1.64328 43.2521 1.64328ZM43.2521 0C42.4907 0 41.7269 0.173572 41.0429 0.501612L2.82934 18.8324C1.07677 19.6732 -0.00727517 21.3863 3.67577e-05 23.3034C0.0073487 25.2205 1.10435 26.9256 2.86318 27.7534L41.0918 45.744C41.7668 46.0616 42.5189 46.2294 43.267 46.2294C44.0115 46.2294 44.7605 46.0631 45.4328 45.7484L83.4592 27.9479C85.2159 27.1255 86.317 25.4263 86.3321 23.5131C86.3471 21.6001 85.2732 19.8843 83.5293 19.0354L45.4879 0.51455C44.7966 0.177883 44.0234 0 43.2521 0Z" fill="#392C7D"/>
</svg>
