<svg width="13" height="15" viewBox="0 0 13 15" fill="none" xmlns="http://www.w3.org/2000/svg">
<path d="M12.8302 10.1981C12.8302 10.4169 12.7208 10.6083 12.5841 10.7177C12.4473 11.1278 12.4473 12.3309 12.5841 12.7684C12.7208 12.8778 12.8302 13.0692 12.8302 13.2606V13.6981C12.8302 14.0809 12.5294 14.3544 12.1739 14.3544H3.20515C1.75593 14.3544 0.58015 13.1786 0.58015 11.7294V2.97937C0.58015 1.53015 1.75593 0.35437 3.20515 0.35437H12.1739C12.5294 0.35437 12.8302 0.655151 12.8302 1.01062V10.1981ZM4.08015 4.01843V4.56531C4.08015 4.67468 4.13484 4.72937 4.24421 4.72937H10.0411C10.1231 4.72937 10.2052 4.67468 10.2052 4.56531V4.01843C10.2052 3.9364 10.1231 3.85437 10.0411 3.85437H4.24421C4.13484 3.85437 4.08015 3.9364 4.08015 4.01843ZM4.08015 5.76843V6.31531C4.08015 6.42468 4.13484 6.47937 4.24421 6.47937H10.0411C10.1231 6.47937 10.2052 6.42468 10.2052 6.31531V5.76843C10.2052 5.6864 10.1231 5.60437 10.0411 5.60437H4.24421C4.13484 5.60437 4.08015 5.6864 4.08015 5.76843ZM10.9981 12.6044C10.9434 12.1395 10.9434 11.3466 10.9981 10.8544H3.20515C2.71296 10.8544 2.33015 11.2645 2.33015 11.7294C2.33015 12.2216 2.71296 12.6044 3.20515 12.6044H10.9981Z" fill="#FF6575"/>
</svg>
