<svg width="24" height="25" viewBox="0 0 24 25" fill="none" xmlns="http://www.w3.org/2000/svg">
<path opacity="0.4" d="M20.6201 8.94072C19.5701 4.32072 15.5401 2.24072 12.0001 2.24072C12.0001 2.24072 12.0001 2.24072 11.9901 2.24072C8.4601 2.24072 4.4201 4.31072 3.3701 8.93072C2.2001 14.0907 5.3601 18.4607 8.2201 21.2107C9.2801 22.2307 10.6401 22.7407 12.0001 22.7407C13.3601 22.7407 14.7201 22.2307 15.7701 21.2107C18.6301 18.4607 21.7901 14.1007 20.6201 8.94072Z" fill="#58247E"/>
<path d="M12.0001 13.9509C13.7398 13.9509 15.1501 12.5406 15.1501 10.8009C15.1501 9.06118 13.7398 7.65088 12.0001 7.65088C10.2604 7.65088 8.8501 9.06118 8.8501 10.8009C8.8501 12.5406 10.2604 13.9509 12.0001 13.9509Z" fill="#58247E"/>
</svg>
