<svg width="62" height="58" viewBox="0 0 62 58" fill="none" xmlns="http://www.w3.org/2000/svg">
<g clip-path="url(#clip0_1_421)">
<path d="M0.440186 6.18518C0.440186 3.42376 2.67877 1.18518 5.44019 1.18518H22.3699C33.4156 1.18518 42.3699 10.1395 42.3699 21.1852V47.1852C42.3699 49.9466 40.1313 52.1852 37.3699 52.1852H20.4402C9.3945 52.1852 0.440186 43.2309 0.440186 32.1852V6.18518Z" fill="#FFEBED"/>
<path d="M51.4125 22.2727V22.281C53.9465 22.2425 56.3964 23.198 58.2359 24.9452C60.1002 26.7158 61.1847 29.1546 61.2509 31.7249C61.3171 34.2952 60.3595 36.7865 58.5888 38.6508C56.8192 40.514 54.3823 41.5984 51.8137 41.6657C51.7489 41.6731 51.6835 41.6732 51.6188 41.6659H48.4265C48.1931 41.6659 47.9693 41.5731 47.8043 41.4081C47.6393 41.2431 47.5465 41.0193 47.5465 40.7859C47.5465 40.5525 47.6393 40.3286 47.8043 40.1636C47.9693 39.9986 48.1931 39.9059 48.4265 39.9059H51.4789H51.6038C52.6585 39.9063 53.7028 39.6965 54.6755 39.2888C55.6483 38.8811 56.5301 38.2837 57.2693 37.5315C58.0086 36.7792 58.5906 35.8871 58.9813 34.9074C59.372 33.9277 59.5635 32.88 59.5448 31.8254C59.526 30.7709 59.2973 29.7306 58.872 28.7654C58.4467 27.8002 57.8334 26.9294 57.0678 26.2039C56.3022 25.4785 55.3997 24.9128 54.4131 24.54C53.4264 24.1672 52.3754 23.9947 51.3213 24.0326L51.3178 24.0327C49.8313 24.0335 48.3724 24.4346 47.0944 25.1938C46.9608 25.2737 46.8084 25.3167 46.6527 25.3184C46.497 25.3202 46.3436 25.2805 46.2082 25.2036C46.0727 25.1266 45.9602 25.0151 45.8819 24.8804C45.8037 24.7457 45.7627 24.5926 45.7629 24.4369M51.4125 22.2727L23.0993 27.5796C22.7801 26.5376 22.6169 25.4541 22.6149 24.3643C22.6149 18.1402 27.8042 13.0763 34.1889 13.0763C40.5738 13.0763 45.7629 18.1455 45.7629 24.3435V24.3446V24.3456V24.3467V24.3478V24.3489V24.3501V24.3513V24.3525V24.3537V24.3547V24.3558V24.3569V24.358V24.3591V24.3602V24.3614V24.3624V24.3636V24.3648V24.3659V24.3672V24.3685V24.3696V24.3707V24.3718V24.373V24.3741V24.3753V24.3765V24.3776V24.3788V24.38V24.3812V24.3825V24.3837V24.3849V24.3861V24.3874V24.3886V24.3899V24.3909V24.3921V24.3933V24.3946V24.3958V24.3971V24.3981V24.3993V24.4005V24.4018V24.403V24.4042V24.4054V24.4066V24.4078V24.4088V24.41V24.4111V24.4121V24.4132V24.4143V24.4155V24.4166V24.4177V24.4188V24.4199V24.4211V24.4222V24.4234V24.4246V24.4256V24.4267V24.4278V24.4289V24.4301V24.4313V24.4324V24.4335V24.4345V24.4357V24.4369M51.4125 22.2727H51.3125H51.4125ZM51.4125 22.2727H51.3125H51.4125ZM45.7629 24.4369L45.8629 24.4371L45.7629 24.4369ZM45.7629 24.4369L45.8629 24.4371L45.7629 24.4369ZM45.8629 24.4371C45.8627 24.5751 45.8991 24.7108 45.9684 24.8302L34.1889 12.9763C40.6265 12.9763 45.8629 18.0879 45.8629 24.3435V24.4371ZM51.3125 22.2727C49.9881 22.2728 48.6772 22.5352 47.4556 23.0445C47.0829 19.8225 45.5405 16.8475 43.1186 14.6855C40.6633 12.4936 37.4798 11.2943 34.1885 11.3215C26.8556 11.3217 20.8549 17.1726 20.8549 24.3695C20.8549 25.1293 20.923 25.8876 21.0584 26.6351C20.0564 26.4493 19.0267 26.4672 18.0309 26.6883C16.9869 26.92 16.0036 27.3699 15.1455 28.0083C14.2875 28.6468 13.5741 29.4594 13.0522 30.3929C12.5303 31.3264 12.2116 32.3597 12.117 33.425C12.0224 34.4903 12.1541 35.5636 12.5035 36.5744C12.8528 37.5852 13.4118 38.5108 14.144 39.2904C14.8761 40.07 15.7648 40.6861 16.7517 41.0981C17.7383 41.51 18.8007 41.7088 19.8694 41.6815H20.1281C20.3615 41.6815 20.5854 41.5887 20.7504 41.4237C20.9154 41.2587 21.0081 41.0349 21.0081 40.8015C21.0081 40.5681 20.9154 40.3442 20.7504 40.1792C20.5854 40.0142 20.3615 39.9215 20.1281 39.9215H19.8681M51.3125 22.2727L19.8681 39.9215L51.3125 22.2727ZM19.8681 39.9215H19.8652H19.8681ZM19.8681 39.9215H19.8652H19.8681ZM19.8652 39.9215C19.087 39.9446 18.3122 39.8112 17.5865 39.5294C16.8608 39.2475 16.1991 38.8229 15.6405 38.2806C15.0819 37.7384 14.6379 37.0895 14.3346 36.3725C14.0314 35.6555 13.8751 34.885 13.8751 34.1065C13.8751 33.328 14.0314 32.5574 14.3346 31.8404C14.6379 31.1234 15.0819 30.4745 15.6405 29.9323C16.1991 29.39 16.8608 28.9654 17.5865 28.6835C18.3122 28.4017 19.087 28.2683 19.8652 28.2915H19.8679M19.8652 39.9215L19.8679 28.2915L19.8652 39.9215ZM19.8679 28.2915C20.5802 28.293 21.2867 28.4194 21.9553 28.6649L19.8679 28.2915ZM19.8679 28.2915L21.9553 28.6649L19.8679 28.2915ZM21.9553 28.6649C22.1092 28.7214 22.2759 28.7337 22.4364 28.7006L21.9553 28.6649ZM21.9553 28.6649L22.4364 28.7006L21.9553 28.6649ZM22.4364 28.7006C22.597 28.6674 22.7451 28.59 22.864 28.4772L22.4364 28.7006ZM22.4364 28.7006L22.864 28.4772L22.4364 28.7006ZM22.864 28.4772C22.9829 28.3643 23.068 28.2205 23.1096 28.0619L22.864 28.4772ZM22.864 28.4772L23.1096 28.0619L22.864 28.4772ZM23.1096 28.0619C23.1511 27.9034 23.1475 27.7362 23.0993 27.5796L23.1096 28.0619Z" fill="#F66962"/>
<path d="M51.4125 22.2727V22.281C53.9465 22.2425 56.3964 23.198 58.2359 24.9452C60.1002 26.7158 61.1847 29.1546 61.2509 31.7249C61.3171 34.2952 60.3595 36.7865 58.5888 38.6508C56.8192 40.514 54.3823 41.5984 51.8137 41.6657C51.7489 41.6731 51.6835 41.6732 51.6188 41.6659H48.4265C48.1931 41.6659 47.9693 41.5731 47.8043 41.4081C47.6393 41.2431 47.5465 41.0193 47.5465 40.7859C47.5465 40.5525 47.6393 40.3286 47.8043 40.1636C47.9693 39.9986 48.1931 39.9059 48.4265 39.9059H51.4789H51.6038C52.6585 39.9063 53.7028 39.6965 54.6755 39.2888C55.6483 38.8811 56.5301 38.2837 57.2693 37.5315C58.0086 36.7792 58.5906 35.8871 58.9813 34.9074C59.372 33.9277 59.5635 32.88 59.5448 31.8254C59.526 30.7709 59.2973 29.7306 58.872 28.7654C58.4467 27.8002 57.8334 26.9294 57.0678 26.2039C56.3022 25.4785 55.3997 24.9128 54.4131 24.54C53.4264 24.1672 52.3754 23.9947 51.3213 24.0326L51.3178 24.0327C49.8313 24.0335 48.3724 24.4346 47.0944 25.1938C46.9608 25.2737 46.8084 25.3167 46.6527 25.3184C46.497 25.3202 46.3436 25.2805 46.2082 25.2036C46.0727 25.1266 45.9602 25.0151 45.8819 24.8804C45.8037 24.7457 45.7627 24.5926 45.7629 24.4369M51.4125 22.2727L23.0993 27.5796M51.4125 22.2727H51.3125M45.7629 24.4369V24.4357V24.4345V24.4335V24.4324V24.4313V24.4301V24.4289V24.4278V24.4267V24.4256V24.4246V24.4234V24.4222V24.4211V24.4199V24.4188V24.4177V24.4166V24.4155V24.4143V24.4132V24.4121V24.4111V24.41V24.4088V24.4078V24.4066V24.4054V24.4042V24.403V24.4018V24.4005V24.3993V24.3981V24.3971V24.3958V24.3946V24.3933V24.3921V24.3909V24.3899V24.3886V24.3874V24.3861V24.3849V24.3837V24.3825V24.3812V24.38V24.3788V24.3776V24.3765V24.3753V24.3741V24.373V24.3718V24.3707V24.3696V24.3685V24.3672V24.3659V24.3648V24.3636V24.3624V24.3614V24.3602V24.3591V24.358V24.3569V24.3558V24.3547V24.3537V24.3525V24.3513V24.3501V24.3489V24.3478V24.3467V24.3456V24.3446V24.3435C45.7629 18.1455 40.5738 13.0763 34.1889 13.0763C27.8042 13.0763 22.6149 18.1402 22.6149 24.3643C22.6169 25.4541 22.7801 26.5376 23.0993 27.5796M45.7629 24.4369L45.8629 24.4371M23.0993 27.5796C23.1475 27.7362 23.1511 27.9034 23.1096 28.0619M23.0993 27.5796L23.1096 28.0619M51.3125 22.2727C49.9881 22.2728 48.6772 22.5352 47.4556 23.0445C47.0829 19.8225 45.5405 16.8475 43.1186 14.6855C40.6633 12.4936 37.4798 11.2943 34.1885 11.3215C26.8556 11.3217 20.8549 17.1726 20.8549 24.3695C20.8549 25.1293 20.923 25.8876 21.0584 26.6351C20.0564 26.4493 19.0267 26.4672 18.0309 26.6883C16.9869 26.92 16.0036 27.3699 15.1455 28.0083C14.2875 28.6468 13.5741 29.4594 13.0522 30.3929C12.5303 31.3264 12.2116 32.3597 12.117 33.425C12.0224 34.4903 12.1541 35.5636 12.5035 36.5744C12.8528 37.5852 13.4118 38.5108 14.144 39.2904C14.8761 40.07 15.7648 40.6861 16.7517 41.0981C17.7383 41.51 18.8007 41.7088 19.8694 41.6815H20.1281C20.3615 41.6815 20.5854 41.5887 20.7504 41.4237C20.9154 41.2587 21.0081 41.0349 21.0081 40.8015C21.0081 40.5681 20.9154 40.3442 20.7504 40.1792C20.5854 40.0142 20.3615 39.9215 20.1281 39.9215H19.8681M51.3125 22.2727L19.8681 39.9215M45.8629 24.4371C45.8627 24.5751 45.8991 24.7108 45.9684 24.8302L34.1889 12.9763C40.6265 12.9763 45.8629 18.0879 45.8629 24.3435V24.4371ZM19.8681 39.9215H19.8652M19.8652 39.9215C19.087 39.9446 18.3122 39.8112 17.5865 39.5294C16.8608 39.2475 16.1991 38.8229 15.6405 38.2806C15.0819 37.7384 14.6379 37.0895 14.3346 36.3725C14.0314 35.6555 13.8751 34.885 13.8751 34.1065C13.8751 33.328 14.0314 32.5574 14.3346 31.8404C14.6379 31.1234 15.0819 30.4745 15.6405 29.9323C16.1991 29.39 16.8608 28.9654 17.5865 28.6835C18.3122 28.4017 19.087 28.2683 19.8652 28.2915H19.8679M19.8652 39.9215L19.8679 28.2915M19.8679 28.2915C20.5802 28.293 21.2867 28.4194 21.9553 28.6649M19.8679 28.2915L21.9553 28.6649M21.9553 28.6649C22.1092 28.7214 22.2759 28.7337 22.4364 28.7006M21.9553 28.6649L22.4364 28.7006M22.4364 28.7006C22.597 28.6674 22.7451 28.59 22.864 28.4772M22.4364 28.7006L22.864 28.4772M22.864 28.4772C22.9829 28.3643 23.068 28.2205 23.1096 28.0619M22.864 28.4772L23.1096 28.0619" stroke="#F66962" stroke-width="0.2"/>
<path d="M49.321 50.0574L49.3184 50.0598L44.5804 54.7979V31.9618C44.5804 31.7284 44.4876 31.5045 44.3226 31.3395C44.1576 31.1745 43.9337 31.0818 43.7004 31.0818C43.467 31.0818 43.2431 31.1745 43.0781 31.3395C42.9131 31.5045 42.8204 31.7284 42.8204 31.9618V54.7979L38.0835 50.0611C38.0032 49.9752 37.9065 49.9063 37.7991 49.8585C37.6911 49.8104 37.5746 49.7845 37.4564 49.7824C37.3383 49.7803 37.2209 49.8021 37.1113 49.8463C37.0018 49.8906 36.9022 49.9565 36.8186 50.04C36.7351 50.1236 36.6692 50.2231 36.6249 50.3327C36.5807 50.4423 36.559 50.5597 36.561 50.6778C36.5631 50.796 36.589 50.9125 36.6371 51.0205C36.6849 51.1278 36.7538 51.2246 36.8397 51.3049L43.0784 57.5437C43.2434 57.7085 43.4672 57.8011 43.7004 57.8011C43.9336 57.8011 44.1572 57.7085 44.3222 57.5437L50.5623 51.3037L50.5647 51.3011C50.7202 51.1343 50.8048 50.9137 50.8008 50.6857C50.7967 50.4577 50.7044 50.2402 50.5432 50.079C50.3819 49.9177 50.1644 49.8254 49.9364 49.8213C49.7084 49.8173 49.4878 49.902 49.321 50.0574Z" fill="#F66962" stroke="#F66962" stroke-width="0.2"/>
<path d="M37.0444 37.5822L37.0419 37.5796L30.8019 31.3396C30.6369 31.1748 30.4132 31.0822 30.18 31.0822C29.9468 31.0822 29.7231 31.1748 29.5581 31.3396L23.3181 37.5796L23.3156 37.5822C23.1602 37.749 23.0756 37.9696 23.0796 38.1976C23.0836 38.4256 23.176 38.6431 23.3372 38.8044C23.4984 38.9656 23.716 39.0579 23.9439 39.062C24.1719 39.066 24.3926 38.9814 24.5594 38.8259L24.5619 38.8235L29.3 34.0854V56.9216C29.3 57.1549 29.3927 57.3788 29.5577 57.5438C29.7228 57.7088 29.9466 57.8016 30.18 57.8016C30.4134 57.8016 30.6372 57.7088 30.8023 57.5438C30.9673 57.3788 31.06 57.1549 31.06 56.9216V34.0854L35.7981 38.8235L35.8006 38.8259C35.9674 38.9814 36.1881 39.066 36.4161 39.062C36.6441 39.0579 36.8616 38.9656 37.0228 38.8044C37.184 38.6431 37.2764 38.4256 37.2804 38.1976C37.2844 37.9696 37.1998 37.749 37.0444 37.5822Z" fill="#F66962" stroke="#F66962" stroke-width="0.2"/>
<path d="M40.793 22.3857L40.7971 22.3955C40.8914 22.591 41.0546 22.7447 41.2553 22.8271C41.4561 22.9096 41.6802 22.9149 41.8847 22.8422C42.0891 22.7694 42.2595 22.6237 42.363 22.433C42.4666 22.2422 42.496 22.02 42.4456 21.8089L42.4425 21.7984C41.8436 20.122 40.7468 18.6685 39.2991 17.6326C37.8514 16.5966 36.1218 16.0276 34.3418 16.0017H34.3403C34.1069 16.0017 33.8831 16.0944 33.7181 16.2594C33.553 16.4245 33.4603 16.6483 33.4603 16.8817C33.4603 17.1151 33.553 17.3389 33.7181 17.5039C33.8829 17.6688 34.1064 17.7615 34.3395 17.7617C35.7577 17.7844 37.1353 18.2391 38.2884 19.0652C39.4416 19.8915 40.3154 21.0499 40.793 22.3857Z" fill="#F66962" stroke="#F66962" stroke-width="0.2"/>
</g>
<defs>
<clipPath id="clip0_1_421">
<rect width="61" height="57" fill="white" transform="translate(0.440186 0.994507)"/>
</clipPath>
</defs>
</svg>
