<svg width="21" height="20" viewBox="0 0 24 23" fill="none" xmlns="http://www.w3.org/2000/svg">
<path d="M22.9805 9.50053L13.4929 9.50008C13.074 9.50008 12.7344 9.83583 12.7344 10.2501V13.2471C12.7344 13.6612 13.074 13.9971 13.4929 13.9971H18.8357C18.2506 15.4984 17.1587 16.7557 15.7655 17.5546L18.0437 21.4542C21.6982 19.3643 23.8587 15.6974 23.8587 11.5925C23.8587 11.0081 23.8151 10.5902 23.728 10.1198C23.6618 9.76234 23.3479 9.50053 22.9805 9.50053Z" fill="#167EE6"/>
<path d="M12.2284 18.5C9.61369 18.5 7.33112 17.0874 6.1052 14.997L2.16162 17.2446C4.16848 20.6839 7.92797 23 12.2284 23C14.338 23 16.3286 22.4383 18.0434 21.4595V21.4542L15.7652 17.5545C14.7231 18.1522 13.5172 18.5 12.2284 18.5Z" fill="#12B347"/>
<path d="M18.0435 21.4595V21.4542L15.7654 17.5545C14.7233 18.1521 13.5175 18.5 12.2285 18.5V23C14.3381 23 16.3288 22.4383 18.0435 21.4595Z" fill="#0F993E"/>
<path d="M5.15 11.5001C5.15 10.2257 5.50172 9.03342 6.10598 8.00305L2.1624 5.75542C1.16708 7.4457 0.599121 9.4087 0.599121 11.5001C0.599121 13.5915 1.16708 15.5545 2.1624 17.2447L6.10598 14.9971C5.50172 13.9667 5.15 12.7745 5.15 11.5001Z" fill="#FFD500"/>
<path d="M12.2279 4.5C13.9329 4.5 15.499 5.09908 16.7223 6.09558C17.0241 6.3414 17.4627 6.32365 17.7392 6.0503L19.8866 3.92685C20.2003 3.61671 20.1779 3.10904 19.8429 2.82163C17.7933 1.06344 15.1266 0 12.2279 0C7.92749 0 4.16799 2.31604 2.16113 5.75535L6.10471 8.00297C7.33063 5.91262 9.6132 4.5 12.2279 4.5Z" fill="#FF4B26"/>
<path d="M16.723 6.09558C17.0248 6.3414 17.4634 6.32365 17.7398 6.0503L19.8873 3.92685C20.2009 3.61671 20.1785 3.10904 19.8435 2.82163C17.794 1.06339 15.1273 0 12.2285 0V4.5C13.9335 4.5 15.4997 5.09908 16.723 6.09558Z" fill="#D93F21"/>
</svg>
