<svg width="13" height="15" viewBox="0 0 13 15" fill="none" xmlns="http://www.w3.org/2000/svg">
<path d="M0.0799975 13.3875V5.94995H12.33V13.3875C12.33 14.1257 11.7284 14.7 11.0175 14.7H1.3925C0.654216 14.7 0.0799975 14.1257 0.0799975 13.3875ZM8.83 8.02808V9.12183C8.83 9.31323 8.96672 9.44995 9.15812 9.44995H10.2519C10.4159 9.44995 10.58 9.31323 10.58 9.12183V8.02808C10.58 7.86401 10.4159 7.69995 10.2519 7.69995H9.15812C8.96672 7.69995 8.83 7.86401 8.83 8.02808ZM8.83 11.5281V12.6218C8.83 12.8132 8.96672 12.95 9.15812 12.95H10.2519C10.4159 12.95 10.58 12.8132 10.58 12.6218V11.5281C10.58 11.364 10.4159 11.2 10.2519 11.2H9.15812C8.96672 11.2 8.83 11.364 8.83 11.5281ZM5.33 8.02808V9.12183C5.33 9.31323 5.46672 9.44995 5.65812 9.44995H6.75187C6.91594 9.44995 7.08 9.31323 7.08 9.12183V8.02808C7.08 7.86401 6.91594 7.69995 6.75187 7.69995H5.65812C5.46672 7.69995 5.33 7.86401 5.33 8.02808ZM5.33 11.5281V12.6218C5.33 12.8132 5.46672 12.95 5.65812 12.95H6.75187C6.91594 12.95 7.08 12.8132 7.08 12.6218V11.5281C7.08 11.364 6.91594 11.2 6.75187 11.2H5.65812C5.46672 11.2 5.33 11.364 5.33 11.5281ZM1.83 8.02808V9.12183C1.83 9.31323 1.96672 9.44995 2.15812 9.44995H3.25187C3.41594 9.44995 3.58 9.31323 3.58 9.12183V8.02808C3.58 7.86401 3.41594 7.69995 3.25187 7.69995H2.15812C1.96672 7.69995 1.83 7.86401 1.83 8.02808ZM1.83 11.5281V12.6218C1.83 12.8132 1.96672 12.95 2.15812 12.95H3.25187C3.41594 12.95 3.58 12.8132 3.58 12.6218V11.5281C3.58 11.364 3.41594 11.2 3.25187 11.2H2.15812C1.96672 11.2 1.83 11.364 1.83 11.5281ZM11.0175 2.44995C11.7284 2.44995 12.33 3.05151 12.33 3.76245V5.07495H0.0799975V3.76245C0.0799975 3.05151 0.654216 2.44995 1.3925 2.44995H2.705V1.13745C2.705 0.918701 2.8964 0.699951 3.1425 0.699951H4.0175C4.23625 0.699951 4.455 0.918701 4.455 1.13745V2.44995H7.955V1.13745C7.955 0.918701 8.1464 0.699951 8.3925 0.699951H9.2675C9.48625 0.699951 9.705 0.918701 9.705 1.13745V2.44995H11.0175Z" fill="#FF6575"/>
</svg>
