<svg width="24" height="25" viewBox="0 0 24 25" fill="none" xmlns="http://www.w3.org/2000/svg">
<path d="M17.62 10.9107C17.19 10.9107 16.85 10.5607 16.85 10.1407C16.85 9.77074 16.48 9.00074 15.86 8.33074C15.25 7.68074 14.58 7.30074 14.02 7.30074C13.59 7.30074 13.25 6.95074 13.25 6.53074C13.25 6.11074 13.6 5.76074 14.02 5.76074C15.02 5.76074 16.07 6.30074 16.99 7.27074C17.85 8.18074 18.4 9.31074 18.4 10.1307C18.4 10.5607 18.05 10.9107 17.62 10.9107Z" fill="#FE893E"/>
<path d="M21.23 10.9106C20.8 10.9106 20.46 10.5606 20.46 10.1406C20.46 6.59064 17.57 3.71064 14.03 3.71064C13.6 3.71064 13.26 3.36064 13.26 2.94064C13.26 2.52064 13.6 2.16064 14.02 2.16064C18.42 2.16064 22 5.74064 22 10.1406C22 10.5606 21.65 10.9106 21.23 10.9106Z" fill="#FE893E"/>
<path opacity="0.4" d="M11.79 14.3706L8.52 17.6406C8.16 17.3206 7.81 16.9906 7.47 16.6506C6.44 15.6106 5.51 14.5206 4.68 13.3806C3.86 12.2406 3.2 11.1006 2.72 9.97064C2.24 8.83065 2 7.74064 2 6.70064C2 6.02064 2.12 5.37064 2.36 4.77064C2.6 4.16064 2.98 3.60064 3.51 3.10064C4.15 2.47064 4.85 2.16064 5.59 2.16064C5.87 2.16064 6.15 2.22064 6.4 2.34064C6.66 2.46064 6.89 2.64064 7.07 2.90064L9.39 6.17064C9.57 6.42064 9.7 6.65064 9.79 6.87064C9.88 7.08064 9.93 7.29064 9.93 7.48064C9.93 7.72064 9.86 7.96064 9.72 8.19064C9.59 8.42064 9.4 8.66064 9.16 8.90064L8.4 9.69064C8.29 9.80064 8.24 9.93064 8.24 10.0906C8.24 10.1706 8.25 10.2406 8.27 10.3206C8.3 10.4006 8.33 10.4606 8.35 10.5206C8.53 10.8506 8.84 11.2806 9.28 11.8006C9.73 12.3206 10.21 12.8506 10.73 13.3806C11.09 13.7306 11.44 14.0706 11.79 14.3706Z" fill="#FE893E"/>
<path d="M21.9701 18.4907C21.9701 18.7707 21.9201 19.0607 21.8201 19.3407C21.7901 19.4207 21.7601 19.5007 21.7201 19.5807C21.5501 19.9407 21.3301 20.2807 21.0401 20.6007C20.5501 21.1407 20.0101 21.5307 19.4001 21.7807C19.3901 21.7807 19.3801 21.7907 19.3701 21.7907C18.7801 22.0307 18.1401 22.1607 17.4501 22.1607C16.4301 22.1607 15.3401 21.9207 14.1901 21.4307C13.0401 20.9407 11.8901 20.2807 10.7501 19.4507C10.3601 19.1607 9.9701 18.8707 9.6001 18.5607L12.8701 15.2907C13.1501 15.5007 13.4001 15.6607 13.6101 15.7707C13.6601 15.7907 13.7201 15.8207 13.7901 15.8507C13.8701 15.8807 13.9501 15.8907 14.0401 15.8907C14.2101 15.8907 14.3401 15.8307 14.4501 15.7207L15.2101 14.9707C15.4601 14.7207 15.7001 14.5307 15.9301 14.4107C16.1601 14.2707 16.3901 14.2007 16.6401 14.2007C16.8301 14.2007 17.0301 14.2407 17.2501 14.3307C17.4701 14.4207 17.7001 14.5507 17.9501 14.7207L21.2601 17.0707C21.5201 17.2507 21.7001 17.4607 21.8101 17.7107C21.9101 17.9607 21.9701 18.2107 21.9701 18.4907Z" fill="#FE893E"/>
</svg>
