<svg width="19" height="19" viewBox="0 0 19 19" fill="none" xmlns="http://www.w3.org/2000/svg">
<path opacity="0.4" d="M9.44019 4.68938V16.7119C9.31269 16.7119 9.17769 16.6894 9.07269 16.6294L9.04269 16.6144C7.60269 15.8269 5.09019 15.0019 3.46269 14.7844L3.24519 14.7544C2.52519 14.6644 1.94019 13.9894 1.94019 13.2694V4.20937C1.94019 3.31687 2.66769 2.64188 3.56019 2.71688C5.13519 2.84438 7.52019 3.63937 8.85519 4.47187L9.04269 4.58437C9.15519 4.65187 9.29769 4.68938 9.44019 4.68938Z" fill="#F66962"/>
<path d="M16.9402 4.21688V13.2694C16.9402 13.9894 16.3552 14.6644 15.6352 14.7544L15.3877 14.7844C13.7527 15.0019 11.2327 15.8344 9.79269 16.6294C9.69519 16.6894 9.57519 16.7119 9.44019 16.7119V4.68938C9.58269 4.68938 9.72519 4.65188 9.83769 4.58438L9.96519 4.50188C11.3002 3.66188 13.6927 2.85938 15.2677 2.72438H15.3127C16.2052 2.64938 16.9402 3.31688 16.9402 4.21688Z" fill="#F66962"/>
<path d="M6.25269 7.64429H4.56519C4.25769 7.64429 4.00269 7.38929 4.00269 7.08179C4.00269 6.77429 4.25769 6.51929 4.56519 6.51929H6.25269C6.56019 6.51929 6.81519 6.77429 6.81519 7.08179C6.81519 7.38929 6.56019 7.64429 6.25269 7.64429Z" fill="#F66962"/>
<path d="M6.81519 9.89441H4.56519C4.25769 9.89441 4.00269 9.63941 4.00269 9.33191C4.00269 9.02441 4.25769 8.76941 4.56519 8.76941H6.81519C7.12269 8.76941 7.37769 9.02441 7.37769 9.33191C7.37769 9.63941 7.12269 9.89441 6.81519 9.89441Z" fill="#F66962"/>
</svg>
