<svg width="19" height="19" viewBox="0 0 19 19" fill="none" xmlns="http://www.w3.org/2000/svg">
<path d="M9.1402 11.0219C8.8327 11.0219 8.5777 10.7669 8.5777 10.4594V6.70935C8.5777 6.40185 8.8327 6.14685 9.1402 6.14685C9.4477 6.14685 9.7027 6.40185 9.7027 6.70935V10.4594C9.7027 10.7669 9.4477 11.0219 9.1402 11.0219Z" fill="#392C7D"/>
<path d="M11.3076 3.29685H6.97262C6.67262 3.29685 6.43262 3.05685 6.43262 2.75685C6.43262 2.45685 6.67262 2.20935 6.97262 2.20935H11.3076C11.6076 2.20935 11.8476 2.44935 11.8476 2.74935C11.8476 3.04935 11.6076 3.29685 11.3076 3.29685Z" fill="#392C7D"/>
<path opacity="0.4" d="M11.3903 15.6868V13.4818C11.3903 12.5293 11.9603 11.9593 12.9128 11.9593H15.1178C15.2603 11.9593 15.3878 11.9743 15.5153 12.0043C15.5978 11.5843 15.6428 11.1493 15.6428 10.7068C15.6428 7.12185 12.7253 4.20435 9.14027 4.20435C5.55526 4.20435 2.63776 7.12185 2.63776 10.7068C2.63776 14.2918 5.55526 17.2093 9.14027 17.2093C10.0478 17.2093 10.9103 17.0218 11.6978 16.6843C11.5028 16.4293 11.3903 16.0993 11.3903 15.6868Z" fill="#392C7D"/>
<path d="M15.1177 11.9594H12.9127C11.9602 11.9594 11.3902 12.5294 11.3902 13.4819V15.6869C11.3902 16.6393 11.9602 17.2094 12.9127 17.2094H15.1177C16.0702 17.2094 16.6402 16.6393 16.6402 15.6869V13.4819C16.6402 12.5294 16.0702 11.9594 15.1177 11.9594ZM14.9077 15.3043L14.0227 15.8144C13.8427 15.9194 13.6627 15.9719 13.4977 15.9719C13.3702 15.9719 13.2577 15.9419 13.1527 15.8819C12.9127 15.7394 12.7777 15.4619 12.7777 15.0944V14.0744C12.7777 13.7069 12.9127 13.4294 13.1527 13.2869C13.3927 13.1444 13.7002 13.1744 14.0227 13.3544L14.9077 13.8644C15.2227 14.0519 15.4027 14.3069 15.4027 14.5844C15.4027 14.8619 15.2302 15.1168 14.9077 15.3043Z" fill="#392C7D"/>
</svg>
