<svg width="68" height="62" viewBox="0 0 68 62" fill="none" xmlns="http://www.w3.org/2000/svg">
<path d="M0.440186 6.63532C0.440186 3.8739 2.67877 1.63531 5.44019 1.63531H22.3699C33.4156 1.63531 42.3699 10.5896 42.3699 21.6353V47.6353C42.3699 50.3967 40.1313 52.6353 37.3699 52.6353H20.4402C9.3945 52.6353 0.440186 43.681 0.440186 32.6353V6.63532Z" fill="#FFEBED"/>
<path d="M66.1893 28.4521L66.194 28.4487C66.4264 28.2745 66.6182 28.0288 66.6182 27.7101C66.6182 27.4037 66.438 27.0951 66.1847 26.9651L45.28 12.9189L45.2757 12.9162C44.9696 12.7325 44.5459 12.7325 44.2398 12.9162L44.2357 12.9188L18.4466 30.1481C18.3882 30.1778 18.3389 30.2102 18.296 30.2531C18.2517 30.2974 18.2185 30.3486 18.1881 30.4095C18.1811 30.4233 18.1775 30.4387 18.1775 30.4542V30.4553V30.4563V30.4574V30.4584V30.4595V30.4605V30.4616V30.4626V30.4637V30.4647V30.4658V30.4668V30.468V30.4691V30.4703V30.4714V30.4725V30.4736V30.4747V30.4759V30.477V30.4781V30.4792C18.1269 30.5604 18.0984 30.6339 18.0834 30.709C18.0677 30.7874 18.0677 30.8646 18.0677 30.9431V30.9481V46.0405C18.0677 46.347 18.248 46.6556 18.5014 46.7856L39.4062 60.7221C39.5759 60.8352 39.7061 60.9036 39.9008 60.9036C40.0818 60.9036 40.2707 60.8446 40.4031 60.7169L66.2444 43.4894L66.2489 43.4862C66.4812 43.3119 66.6731 43.0663 66.6731 42.7476C66.6731 42.7421 66.6726 42.7366 66.6717 42.7312C66.6144 42.3871 66.4404 42.079 66.1848 41.9478L62.1728 39.237V31.1116L66.1893 28.4521ZM24.3224 33.3943C24.2936 33.3676 24.2622 33.3484 24.2469 33.3392C24.241 33.315 24.2262 33.2936 24.205 33.2795L20.5988 30.8931L44.7851 14.8234L64.0318 27.6545L60.9858 29.6502C60.8128 29.7105 60.644 29.8231 60.5275 29.9373L39.8458 43.7251L24.3224 33.3943ZM24.634 35.8548L39.2965 45.6298L39.3005 45.6323C39.6066 45.816 40.0303 45.816 40.3364 45.6323L40.3404 45.6297L60.3264 32.2876V38.7972L39.9548 52.2326L24.634 42.4185V35.8548ZM23.2666 43.7057L23.2726 43.7099L39.509 54.1319C39.5812 54.2002 39.6678 54.2322 39.7525 54.2476C39.8369 54.2629 39.9269 54.2629 40.0061 54.2629H40.0105C40.1951 54.2629 40.3752 54.2022 40.4943 54.1426L40.5045 54.1367L60.9744 40.6726L64.0338 42.7468L39.846 58.8175L19.8593 45.493V32.6699L22.8424 34.6243V42.9123C22.8424 43.2243 23.0273 43.5262 23.2666 43.7057Z" fill="#F66962" stroke="#F66962" stroke-width="0.2" stroke-linecap="round" stroke-linejoin="round"/>
<path d="M41.1593 22.3027L41.1609 22.3038L50.9298 28.9994L50.9308 29.0001C51.105 29.1162 51.2889 29.1815 51.4254 29.1815C51.5762 29.1815 51.7173 29.1512 51.8448 29.0795C51.9714 29.0083 52.0785 28.8997 52.1676 28.7522C52.4746 28.3187 52.3456 27.7656 51.9225 27.4635L51.9212 27.4625L42.2085 20.7679C42.2088 20.7681 42.2083 20.7678 42.2085 20.7679C41.7747 20.4586 41.2193 20.5869 40.9165 21.0107C40.6065 21.4447 40.7352 21.9998 41.1593 22.3027Z" fill="#F66962"/>
<path d="M42.2085 20.7679L51.9212 27.4625L51.9225 27.4635C52.3456 27.7656 52.4746 28.3187 52.1676 28.7522C52.0785 28.8997 51.9714 29.0083 51.8448 29.0795C51.7173 29.1512 51.5762 29.1815 51.4254 29.1815C51.2889 29.1815 51.105 29.1162 50.9308 29.0001L50.9298 28.9994L41.1609 22.3038L41.1593 22.3027C40.7352 21.9998 40.6065 21.4447 40.9165 21.0107C41.2193 20.5869 41.7747 20.4586 42.2085 20.7679ZM42.2085 20.7679C42.2083 20.7678 42.2088 20.7681 42.2085 20.7679Z" stroke="#F66962" stroke-width="0.2" stroke-linecap="round" stroke-linejoin="round"/>
</svg>
