<svg width="55" height="59" viewBox="0 0 55 59" fill="none" xmlns="http://www.w3.org/2000/svg">
<g clip-path="url(#clip0_1_432)">
<path d="M0.410187 5.99451C0.410187 3.23309 2.64877 0.994507 5.41019 0.994507H22.3399C33.3856 0.994507 42.3399 9.94882 42.3399 20.9945V46.9945C42.3399 49.7559 40.1013 51.9945 37.3399 51.9945H20.4102C9.3645 51.9945 0.410187 43.0402 0.410187 31.9945V5.99451Z" fill="#FFEBED"/>
<path d="M54.0926 29.3098C54.1502 20.2895 46.859 12.904 37.8393 12.8459C28.8073 12.7923 21.4335 20.0795 21.3754 29.0992C21.3336 35.623 25.1367 41.2893 30.6567 43.9493L30.7102 58.1993C30.7112 58.5053 30.8943 58.7806 31.1757 58.8999C31.2721 58.9412 31.3741 58.9611 31.475 58.9611C31.6683 58.9611 31.8584 58.8877 32.0038 58.7495L37.6562 53.3504L43.347 58.7118C43.5693 58.9218 43.8966 58.9774 44.1755 58.8566C44.4559 58.7352 44.6369 58.4584 44.6359 58.1524L44.5875 44.0533C50.1589 41.4708 54.0508 35.8459 54.0926 29.3098ZM43.1002 56.3781L38.1763 51.7397C37.8806 51.4608 37.4181 51.4623 37.1239 51.7433L32.2332 56.4148L32.1888 44.5923C33.8898 45.2072 35.7197 45.5508 37.6287 45.5631C37.6644 45.5631 37.6996 45.5636 37.7353 45.5636C39.5984 45.5636 41.3885 45.2459 43.0594 44.6688L43.1002 56.3781ZM37.7353 44.034C37.7037 44.034 37.6705 44.0335 37.6389 44.0335C29.462 43.9809 22.8525 37.2863 22.9055 29.1089C22.958 20.9641 29.6002 14.375 37.7332 14.375C37.7648 14.375 37.798 14.375 37.8296 14.375C46.006 14.428 52.6155 21.1227 52.563 29.2996C52.511 37.4443 45.8683 44.034 37.7353 44.034Z" fill="#F66962"/>
<path d="M45.1684 26.8546L40.5183 26.1489L38.4656 21.92C38.3386 21.6579 38.0735 21.4912 37.7828 21.4891C37.7828 21.4891 37.7798 21.4891 37.7777 21.4891C37.4886 21.4891 37.224 21.6523 37.094 21.9113L34.9872 26.1137L30.3305 26.7592C30.0424 26.7995 29.8012 26.9994 29.71 27.2757C29.6182 27.5521 29.6911 27.8565 29.8986 28.0609L33.2439 31.3644L32.42 35.9931C32.369 36.2796 32.4847 36.5702 32.7193 36.7431C32.9538 36.9159 33.2659 36.9399 33.5244 36.8063L37.6987 34.6455L41.8476 36.8598C41.9608 36.92 42.0842 36.9501 42.2076 36.9501C42.3646 36.9501 42.5206 36.9017 42.6532 36.8068C42.8898 36.6375 43.0096 36.3484 42.9622 36.0609L42.1974 31.422L45.585 28.1614C45.7945 27.9595 45.8715 27.6561 45.7838 27.3787C45.6946 27.1018 45.457 26.8984 45.1684 26.8546ZM40.8467 30.5991C40.6657 30.7735 40.581 31.0258 40.6223 31.2747L41.2005 34.7811L38.0643 33.1067C37.9516 33.0465 37.8277 33.0164 37.7038 33.0164C37.583 33.0164 37.4626 33.045 37.3525 33.1021L34.1974 34.7352L34.82 31.2364C34.8643 30.9886 34.7838 30.7352 34.6043 30.5583L32.0758 28.0614L35.596 27.573C35.8453 27.5383 36.062 27.3833 36.1747 27.1584L37.767 23.9824L39.3186 27.1788C39.4287 27.4052 39.6434 27.5633 39.8922 27.601L43.4078 28.1343L40.8467 30.5991Z" fill="#F66962"/>
</g>
<defs>
<clipPath id="clip0_1_432">
<rect width="54" height="58" fill="white" transform="translate(0.410187 0.994507)"/>
</clipPath>
</defs>
</svg>
