<svg width="65" height="51" viewBox="0 0 65 51" fill="none" xmlns="http://www.w3.org/2000/svg">
<g clip-path="url(#clip0_1_411)">
<path d="M0.410187 5.59442C0.410187 2.833 2.64877 0.594421 5.41019 0.594421H17.5247C28.5704 0.594421 37.5247 9.54873 37.5247 20.5944V41.205C37.5247 43.9664 35.2861 46.205 32.5247 46.205H20.4102C9.3645 46.205 0.410187 37.2507 0.410187 26.205V5.59442Z" fill="#FFEBED"/>
<path d="M39.7209 25.1863C44.4382 25.1863 48.2753 21.3493 48.2753 16.6324C48.2753 11.9166 44.4377 8.08014 39.7209 8.08014C35.0056 8.08014 31.1696 11.9166 31.1696 16.6324C31.1696 21.3492 35.0056 25.1863 39.7209 25.1863ZM39.7209 9.78552C43.4981 9.78552 46.5704 12.8573 46.5704 16.6329C46.5704 20.4096 43.4976 23.4819 39.7209 23.4819C35.9458 23.4819 32.8744 20.4097 32.8744 16.6329C32.8744 12.8573 35.9458 9.78552 39.7209 9.78552Z" fill="#F66962" stroke="#F66962" stroke-width="0.2"/>
<path d="M55.5686 21.1904L57.6203 22.9266C58.6704 23.815 58.9432 25.2771 58.386 26.467L60.181 28.3631L55.5686 21.1904ZM55.5686 21.1904C54.96 20.6762 54.1879 20.4296 53.395 20.495L55.5686 21.1904ZM55.5686 21.1904L53.395 20.495L55.5686 21.1904ZM53.395 20.495C52.6006 20.5609 51.8788 20.9326 51.3641 21.5413C50.3026 22.7964 50.4598 24.6824 51.7149 25.7449L53.766 27.482M53.395 20.495L53.766 27.482L53.395 20.495ZM53.766 27.482C54.3255 27.9549 55.0099 28.1859 55.6912 28.1859C56.2351 28.1859 56.775 28.0347 57.2486 27.7452L58.7098 29.289V40.401H54.6306C54.3825 32.5227 47.9006 26.1886 39.9628 26.1886C32.0259 26.1886 25.545 32.5227 25.2969 40.401H23.5201C23.0489 40.401 22.6676 40.783 22.6676 41.2535V49.4937C22.6676 49.9647 23.049 50.3461 23.5201 50.3461H62.5639C63.0344 50.3461 63.4163 49.9648 63.4163 49.4937V41.2535C63.4163 40.782 63.0346 40.4 62.5639 40.4H60.4146M53.766 27.482L60.4146 40.4L53.766 27.482ZM52.666 22.6411C52.2111 23.1788 52.2785 23.9871 52.8163 24.4425L54.8674 26.1796L52.666 22.6411ZM52.666 22.6411C52.8866 22.38 53.1952 22.2211 53.5358 22.1931C53.5719 22.1903 53.6075 22.189 53.6435 22.189C53.9449 22.189 54.2346 22.2944 54.4673 22.4914L56.5189 24.2274C56.5188 24.2274 56.5189 24.2275 56.5189 24.2274C57.0561 24.6823 57.1237 25.4911 56.6682 26.0293M52.666 22.6411L56.6682 26.0293L52.666 22.6411ZM56.6682 26.0293C56.2143 26.5664 55.4047 26.634 54.8674 26.1796L56.6682 26.0293ZM60.4146 40.4V28.9492C60.4146 28.7311 60.3316 28.5218 60.181 28.3631L60.4146 40.4ZM39.9628 27.8919C46.9603 27.8919 52.6781 33.4614 52.9253 40.3995H27.0022C27.249 33.4618 32.9662 27.8919 39.9628 27.8919ZM61.7115 48.6402H24.3725V42.1049H61.7115V48.6402Z" fill="#F66962"/>
<path d="M55.5686 21.1904L57.6203 22.9266C58.6704 23.815 58.9432 25.2771 58.386 26.467L60.181 28.3631M55.5686 21.1904L60.181 28.3631M55.5686 21.1904C54.96 20.6762 54.1879 20.4296 53.395 20.495M55.5686 21.1904L53.395 20.495M60.181 28.3631C60.3316 28.5218 60.4146 28.7311 60.4146 28.9492V40.4M60.181 28.3631L60.4146 40.4M53.395 20.495C52.6006 20.5609 51.8788 20.9326 51.3641 21.5413C50.3026 22.7964 50.4598 24.6824 51.7149 25.7449L53.766 27.482M53.395 20.495L53.766 27.482M53.766 27.482C54.3255 27.9549 55.0099 28.1859 55.6912 28.1859C56.2351 28.1859 56.775 28.0347 57.2486 27.7452L58.7098 29.289V40.401H54.6306C54.3825 32.5227 47.9006 26.1886 39.9628 26.1886C32.0259 26.1886 25.545 32.5227 25.2969 40.401H23.5201C23.0489 40.401 22.6676 40.783 22.6676 41.2535V49.4937C22.6676 49.9647 23.049 50.3461 23.5201 50.3461H62.5639C63.0344 50.3461 63.4163 49.9648 63.4163 49.4937V41.2535C63.4163 40.782 63.0346 40.4 62.5639 40.4H60.4146M53.766 27.482L60.4146 40.4M52.666 22.6411C52.2111 23.1788 52.2785 23.9871 52.8163 24.4425L54.8674 26.1796M52.666 22.6411L54.8674 26.1796M52.666 22.6411C52.8866 22.38 53.1952 22.2211 53.5358 22.1931M52.666 22.6411L56.6682 26.0293M54.8674 26.1796C55.4047 26.634 56.2143 26.5664 56.6682 26.0293M54.8674 26.1796L56.6682 26.0293M53.5358 22.1931L53.5277 22.0935M53.5358 22.1931C53.5719 22.1903 53.6075 22.189 53.6435 22.189C53.9449 22.189 54.2346 22.2944 54.4673 22.4914L56.5189 24.2274M56.5189 24.2274C56.5189 24.2275 56.5188 24.2274 56.5189 24.2274ZM56.5189 24.2274C57.0561 24.6823 57.1237 25.4911 56.6682 26.0293M39.9628 27.8919C46.9603 27.8919 52.6781 33.4614 52.9253 40.3995H27.0022C27.249 33.4618 32.9662 27.8919 39.9628 27.8919ZM61.7115 48.6402H24.3725V42.1049H61.7115V48.6402Z" stroke="#F66962" stroke-width="0.2"/>
</g>
<defs>
<clipPath id="clip0_1_411">
<rect width="64" height="50" fill="white" transform="translate(0.410187 0.594421)"/>
</clipPath>
</defs>
</svg>
