<svg width="24" height="25" viewBox="0 0 24 25" fill="none" xmlns="http://www.w3.org/2000/svg">
<path d="M20 7.72021C21.5188 7.72021 22.75 6.48899 22.75 4.97021C22.75 3.45143 21.5188 2.22021 20 2.22021C18.4812 2.22021 17.25 3.45143 17.25 4.97021C17.25 6.48899 18.4812 7.72021 20 7.72021Z" fill="#FF5364"/>
<path opacity="0.4" d="M20 8.97021C17.79 8.97021 16 7.18021 16 4.97021C16 4.24021 16.21 3.56021 16.56 2.97021H7C4.24 2.97021 2 5.20021 2 7.95021V13.9302V14.9302C2 17.6802 4.24 19.9102 7 19.9102H8.5C8.77 19.9102 9.13 20.0902 9.3 20.3102L10.8 22.3002C11.46 23.1802 12.54 23.1802 13.2 22.3002L14.7 20.3102C14.89 20.0602 15.19 19.9102 15.5 19.9102H17C19.76 19.9102 22 17.6802 22 14.9302V8.41021C21.41 8.76021 20.73 8.97021 20 8.97021Z" fill="#FF5364"/>
<path d="M12 12.9702C11.44 12.9702 11 12.5202 11 11.9702C11 11.4202 11.45 10.9702 12 10.9702C12.55 10.9702 13 11.4202 13 11.9702C13 12.5202 12.56 12.9702 12 12.9702Z" fill="#FF5364"/>
<path d="M16 12.9702C15.44 12.9702 15 12.5202 15 11.9702C15 11.4202 15.45 10.9702 16 10.9702C16.55 10.9702 17 11.4202 17 11.9702C17 12.5202 16.56 12.9702 16 12.9702Z" fill="#FF5364"/>
<path d="M8 12.9702C7.44 12.9702 7 12.5202 7 11.9702C7 11.4202 7.45 10.9702 8 10.9702C8.55 10.9702 9 11.4202 9 11.9702C9 12.5202 8.56 12.9702 8 12.9702Z" fill="#FF5364"/>
</svg>
